# AST/ASF file generated using VICON BodyLanguage
# -----------------------------------------------
:version 1.10
:name VICON
:units
  mass 1.0
  length 0.45
  angle deg
:documentation
   .ast/.asf automatically generated from VICON data using
   VICON BodyBuilder and BodyLanguage model FoxedUp or BRILLIANT.MOD
:root
   order TX TY TZ RX RY RZ
   axis XYZ
   position 0 0 0  
   orientation 0 0 0 
:bonedata
  begin
     id 1 
     name lhipjoint
     direction 0.643824 -0.71708 0.266994 
     length 2.52133 
     axis 0 0 0  XYZ
  end
  begin
     id 2 
     name lfemur
     direction 0.34202 -0.939693 0  
     length 7.51824  
     axis 0 0 20  XYZ
    dof rx ry rz
    limits (-160.0 20.0)
           (-70.0 70.0)
           (-60.0 70.0)
  end
  begin
     id 3 
     name ltibia
     direction 0.34202 -0.939693 0   
     length 7.3685   
     axis 0 0 20   XYZ
    dof rx
    limits (-10.0 170.0)
  end
  begin
     id 4 
     name lfoot
     direction 0.105419 -0.289636 0.951314   
     length 2.20972   
     axis -90 7.62852e-016 20   XYZ
    dof rx rz
    limits (-45.0 90.0)
           (-70.0 20.0)
  end
  begin
     id 5 
     name ltoes
     direction 1.53549e-011 -4.21833e-011 1   
     length 1.10139   
     axis -90 7.62852e-016 20   XYZ
    dof rx
    limits (-90.0 20.0)
  end
  begin
     id 6 
     name rhipjoint
     direction -0.608823 -0.743445 0.276811   
     length 2.43192  
     axis 0 0 0  XYZ 
  end
  begin
     id 7 
     name rfemur
     direction -0.34202 -0.939693 0   
     length 7.69715   
     axis 0 0 -20   XYZ
    dof rx ry rz
    limits (-160.0 20.0)
           (-70.0 70.0)
           (-70.0 60.0)
  end
  begin
     id 8 
     name rtibia
     direction -0.34202 -0.939693 0   
     length 7.44924   
     axis 0 0 -20   XYZ
    dof rx
    limits (-10.0 170.0)
 end
 begin
     id 9 
     name rfoot
     direction -0.103614 -0.284677 0.953007   
     length 2.22623  
     axis -90 -7.62852e-016 -20   XYZ
    dof rx rz
    limits (-45.0 90.0)
           (-20.0 70.0)
  end
  begin
     id 10 
     name rtoes
     direction -1.53537e-011 -4.22026e-011 1   
     length 1.11   
     axis -90 -7.62852e-016 -20   XYZ
    dof rx
    limits (-90.0 20.0)
  end
  begin
     id 11 
     name lowerback
     direction -0.0101212 0.99662 -0.0815298   
     length 2.08277   
     axis 0 0 0   XYZ
    dof rx ry rz
    limits (-20.0 45.0)
           (-30.0 30.0)
           (-30.0 30.0)
  end
  begin
     id 12 
     name upperback
     direction 0.024314 0.999591 -0.0150645   
     length 2.08524   
     axis 0 0 0   XYZ
    dof rx ry rz
    limits (-20.0 45.0)
           (-30.0 30.0)
           (-30.0 30.0)
  end
  begin
     id 13 
     name thorax
     direction 0.0285959 0.999323 0.0231357   
     length 2.09645   
     axis 0 0 0   XYZ
    dof rx ry rz
    limits (-20.0 45.0)
           (-30.0 30.0)
           (-30.0 30.0)
  end
  begin
     id 14 
     name lowerneck
     direction -0.065512 0.979301 0.191515   
     length 1.63798   
     axis 0 0 0   XYZ
    dof rx ry rz
    limits (-20.0 45.0)
           (-30.0 30.0)
           (-30.0 30.0)
  end
  begin
     id 15 
     name upperneck
     direction 0.0498479 0.98191 -0.182667   
     length 1.68731   
     axis 0 0 0   XYZ
    dof rx ry rz
    limits (-20.0 45.0)
           (-30.0 30.0)
           (-30.0 30.0)
  end
  begin
     id 16
     name head
     direction 0.0230358 0.996257 -0.0833175  
     length 1.69785  
     axis 0 0 0   XYZ
    dof rx ry rz
    limits (-20.0 45.0)
           (-30.0 30.0)
           (-30.0 30.0)
  end
  begin
     id 17 
     name lclavicle
     direction 0.967963 0.201165 -0.150269  
     length 3.63976  
     axis 0 0 0   XYZ
    dof ry rz
    limits (-20.0 10.0)
           (0.0 20.0)
  end
  begin
     id 18 
     name lhumerus
     direction 1 -4.48954e-011 -2.92837e-028   
     length 5.32462   
     axis 180 -30 -90   XYZ
    dof rx ry rz
    limits (-60.0 90.0)
           (-90.0 90.0)
           (-90.0 90.0)
  end
  begin
     id 19
     name lradius
     direction 1 -4.48958e-011 -6.39511e-027   
     length 3.48402   
     axis 180 -30 -90   XYZ
    dof rx
    limits (-10.0 170.0)
  end
  begin
     id 20
     name lwrist
     direction 1 -4.48975e-011 -1.1413e-026   
     length 1.74201   
     axis 6.88575e-015 90 90   XYZ
    dof ry
    limits (-180.0 0.0)
 end
  begin
     id 21 
     name lhand
     direction 1 -4.48899e-011 -2.28192e-026   
     length 0.572476   
     axis 1.45643e-014 90 90   XYZ
    dof rx rz
    limits (-90.0 90.0)
           (-45.0 45.0)
  end
  begin
     id 22 
     name lfingers
     direction 1 -4.49155e-011 -4.5684e-026   
     length 0.461545   
     axis 2.91283e-014 90 90   XYZ
    dof rx
    limits (0.0 90.0)
  end
  begin
     id 23
     name lthumb
     direction 0.707107 -6.34943e-011 0.707107   
     length 0.662688   
     axis -90 45 -2.25915e-014   XYZ
    dof rx rz
    limits (-45.0 45.0)
           (-45.0 45.0)
  end
  begin
     id 24 
     name rclavicle
     direction -0.964103 0.264019 -0.0282629   
     length 3.54491  
     axis 0 0 0   XYZ 
    dof ry rz
    limits (-10.0 20.0)
           (-20.0 0.0)
  end
  begin
     id 25 
     name rhumerus
     direction -1 -4.48964e-011 -2.45032e-027  
     length 5.33589   
     axis 180 30 90   XYZ
    dof rx ry rz
    limits (-90.0 60.0)
           (-90.0 90.0)
           (-90.0 90.0)
  end
  begin
     id 26 
     name rradius
     direction -1 -4.48987e-011 -1.55093e-027   
     length 3.64134   
     axis 180 30 90   XYZ
    dof rx
    limits (-10.0 170.0)
  end
  begin
     id 27 
     name rwrist
     direction -1 -4.4897e-011 -1.14128e-026   
     length 1.82067   
     axis 6.88575e-015 -90 -90   XYZ
    dof ry
    limits (-180.0 0.0)
  end
  begin
     id 28
     name rhand
     direction -1 -4.49021e-011 -2.28301e-026   
     length 0.734811   
     axis 1.45643e-014 -90 -90   XYZ
    dof rx rz
    limits (-90.0 90.0)
           (-45.0 45.0)
  end
  begin
     id 29
     name rfingers
     direction -1 -4.48862e-011 -4.56319e-026   
     length 0.592424   
     axis 2.91283e-014 -90 -90   XYZ
    dof rx
    limits (0.0 90.0)
  end
  begin
     id 30
     name rthumb
     direction -0.707107 -6.34978e-011 0.707107   
     length 0.850605   
     axis -90 -45 2.25915e-014   XYZ
    dof rx rz
    limits (-45.0 45.0)
           (-45.0 45.0)
  end
:hierarchy
  begin
    root lhipjoint rhipjoint lowerback
    lhipjoint lfemur
    lfemur ltibia
    ltibia lfoot
    lfoot ltoes
    rhipjoint rfemur
    rfemur rtibia
    rtibia rfoot
    rfoot rtoes
    lowerback upperback
    upperback thorax
    thorax lowerneck lclavicle rclavicle
    lowerneck upperneck
    upperneck head
    lclavicle lhumerus
    lhumerus lradius
    lradius lwrist
    lwrist lhand lthumb
    lhand lfingers
    rclavicle rhumerus
    rhumerus rradius
    rradius rwrist
    rwrist rhand rthumb
    rhand rfingers
  end

#!OML:ASF F:\VICON\USERDATA\INSTALL\rory3\rory3.ASF
:FULLY-SPECIFIED
:DEGREES
103
root 0.757469 17.4177 5.05233 0.241079 -52.0649 1.88138
lowerback 5.32344 -1.35142 -4.45858
upperback -0.698326 -2.11077 -0.326066
thorax -3.56127 -0.964302 2.33659
lowerneck -26.8465 -10.9781 -14.373
upperneck -15.3214 -10.8519 11.1299
head 0.574125 -4.83363 4.87088
rclavicle -9.51185e-014 -3.77691e-015
rhumerus 48.5828 -16.0513 -27.5263
rradius 49.1477
rwrist 8.91383
rhand -42.8014 2.86145
rfingers 7.12502
rthumb -15.6671 -26.5242
lclavicle -9.51185e-014 -3.77691e-015
lhumerus 34.4768 2.38353 31.6892
lradius 61.1239
lwrist 2.00512
lhand -26.1057 23.6199
lfingers 7.12502
lthumb 0.443625 53.5992
rfemur -25.9095 3.07501 15.8246
rtibia 43.4075
rfoot -21.2321 -5.22816
rtoes -1.97106
lfemur -9.07701 -3.24164 -21.2912
ltibia 31.9825
lfoot -20.597 -2.10208
ltoes -5.69232
104
root 0.771649 17.4169 5.06226 -0.0514233 -52.2525 2.14525
lowerback 5.36422 -1.31128 -4.68461
upperback -0.798354 -2.07874 -0.349082
thorax -3.68396 -0.939453 2.43987
lowerneck -27.0134 -11.1395 -14.7389
upperneck -15.2557 -10.9296 11.4073
head 0.658461 -4.84396 4.99785
rclavicle 1.6114e-014 1.98785e-016
rhumerus 50.5469 -17.2152 -27.8109
rradius 47.9692
rwrist 9.15072
rhand -43.1224 2.69833
rfingers 7.12502
rthumb -15.9762 -26.6628
lclavicle 1.6114e-014 1.98785e-016
lhumerus 36.6041 3.32281 31.0455
lradius 60.7953
lwrist 1.30818
lhand -26.1112 23.8392
lfingers 7.12502
lthumb 0.438301 53.8185
rfemur -25.8906 2.64634 15.667
rtibia 43.7158
rfoot -21.8087 -5.74621
rtoes -0.880637
lfemur -8.94488 -3.3899 -21.5493
ltibia 31.9248
lfoot -20.5999 -1.87301
ltoes -5.56544
105
root 0.782062 17.4197 5.06859 -0.191483 -52.4742 2.0911
lowerback 5.57883 -1.23876 -4.8641
upperback -0.93097 -2.00651 -0.243928
thorax -3.93921 -0.889497 2.65243
lowerneck -27.0351 -11.1986 -15.004
upperneck -15.2539 -10.9264 11.5058
head 0.678917 -4.8259 5.0693
rclavicle 8.74218e-014 7.15625e-015
rhumerus 52.4771 -18.2394 -28.0768
rradius 46.768
rwrist 9.127
rhand -43.3197 2.56668
rfingers 7.12502
rthumb -16.1662 -26.7792
lclavicle 8.74218e-014 7.15625e-015
lhumerus 38.6449 4.24247 30.6524
lradius 60.3863
lwrist 0.870104
lhand -25.9785 23.7621
lfingers 7.12502
lthumb 0.566555 53.741
rfemur -25.7516 2.24694 15.7486
rtibia 44.048
rfoot -22.3611 -6.38621
rtoes 0.00676302
lfemur -8.70834 -3.32567 -21.5638
ltibia 31.8645
lfoot -20.5893 -1.76967
ltoes -5.74947
106
root 0.790619 17.4274 5.0775 0.0218788 -52.7329 1.57633
lowerback 5.7537 -1.18935 -4.68676
upperback -0.995957 -1.93429 -0.121546
thorax -4.11259 -0.850412 2.68029
lowerneck -27.2669 -11.219 -14.9873
upperneck -15.2027 -10.9295 11.3916
head 0.708257 -4.8257 5.02297
rclavicle -7.31093e-014 2.38542e-015
rhumerus 54.4816 -19.282 -28.5404
rradius 45.5414
rwrist 9.13038
rhand -43.4342 1.58549
rfingers 7.12502
rthumb -16.2765 -27.7514
lclavicle -7.31093e-014 2.38542e-015
lhumerus 40.7532 5.21711 30.1458
lradius 59.7834
lwrist 0.873975
lhand -25.9269 23.3449
lfingers 7.12502
lthumb 0.616329 53.3238
rfemur -25.5723 1.86229 16.1423
rtibia 44.3965
rfoot -22.6597 -7.11243
rtoes 0.404279
lfemur -8.45792 -3.16086 -21.2761
ltibia 31.8023
lfoot -20.5251 -1.69737
ltoes -5.46813
107
root 0.79639 17.4301 5.08609 0.123351 -53.0019 1.3209
lowerback 5.77012 -1.21617 -4.64711
upperback -0.964744 -1.96708 -0.121022
thorax -4.08789 -0.868766 2.66139
lowerneck -27.9021 -11.2124 -14.7921
upperneck -14.9679 -10.8914 11.434
head 0.842582 -4.80256 4.98775
rclavicle -6.60338e-014 2.78299e-015
rhumerus 56.6422 -20.3662 -29.4209
rradius 44.4507
rwrist 9.14386
rhand -43.4382 0.454576
rfingers 7.12502
rthumb -16.2803 -28.882
lclavicle -6.60338e-014 2.78299e-015
lhumerus 42.8753 6.41185 29.4727
lradius 59.059
lwrist 0.536957
lhand -26.2104 22.7297
lfingers 7.12502
lthumb 0.342526 52.7092
rfemur -25.4675 1.63206 16.3353
rtibia 44.7855
rfoot -22.921 -7.74551
rtoes 1.32477
lfemur -8.29554 -3.05207 -21.179
ltibia 31.7486
lfoot -20.4908 -1.45794
ltoes -5.82743
108
root 0.799478 17.4333 5.09572 0.0708046 -53.2669 1.31983
lowerback 5.65241 -1.44161 -4.64442
upperback -0.703468 -2.26992 -0.509476
thorax -3.7414 -1.03726 2.27436
lowerneck -29.1756 -10.7224 -13.1902
upperneck -14.7504 -10.5857 11.2621
head 0.945335 -4.71013 4.69026
rclavicle -1.46976e-014 -1.03368e-014
rhumerus 59.2951 -21.6609 -31.6016
rradius 43.2935
rwrist 9.2618
rhand -43.4054 -0.0984181
rfingers 7.12502
rthumb -16.2488 -29.4375
lclavicle -1.46976e-014 -1.03368e-014
lhumerus 44.9008 7.96173 27.7163
lradius 58.5099
lwrist 0.181693
lhand -26.4095 22.9176
lfingers 7.12502
lthumb 0.150235 52.8973
rfemur -25.4323 1.27136 16.3551
rtibia 45.2527
rfoot -23.1326 -8.35908
rtoes 1.55127
lfemur -8.12607 -2.89497 -21.2177
ltibia 31.6434
lfoot -20.4914 -1.46656
ltoes -5.67347
